<?xml version="1.0" standalone="no"?>
<!DOCTYPE svg PUBLIC "-//W3C//DTD SVG 20010904//EN"
 "http://www.w3.org/TR/2001/REC-SVG-20010904/DTD/svg10.dtd">
<svg version="1.0" xmlns="http://www.w3.org/2000/svg"
 width="1024.000000pt" height="1024.000000pt" viewBox="0 0 1024.000000 1024.000000"
 preserveAspectRatio="xMidYMid meet">

<g transform="translate(0.000000,1024.000000) scale(0.100000,-0.100000)"
fill="#000000" stroke="none">
<path d="M4670 8369 c-104 -9 -264 -39 -380 -70 -149 -40 -459 -176 -467 -204
-3 -14 318 -210 342 -208 11 0 79 21 150 46 205 72 323 91 550 91 259 0 419
-28 629 -111 l89 -35 41 23 c22 12 95 56 161 98 65 42 128 80 140 85 17 7 -5
21 -127 81 -172 85 -315 134 -488 169 -212 43 -423 54 -640 35z"/>
<path d="M3066 8183 c3 -21 15 -78 26 -128 10 -49 48 -234 83 -410 35 -176 94
-463 130 -638 l65 -318 -34 -102 c-123 -369 -96 -824 69 -1163 85 -175 163
-283 309 -429 238 -237 464 -361 805 -442 158 -37 437 -44 610 -14 68 12 156
31 195 42 77 23 166 58 166 66 0 3 -24 32 -54 64 -66 71 -102 143 -117 238
-23 136 24 282 123 387 95 101 200 144 349 144 109 0 184 -23 280 -85 58 -37
76 -44 141 -50 l74 -7 46 99 c25 54 60 147 77 206 54 192 65 266 65 462 1 201
-10 270 -71 459 -28 89 -34 117 -28 155 8 54 92 477 170 856 103 503 126 617
123 627 -2 5 -75 -35 -163 -88 -88 -54 -284 -172 -435 -264 -151 -92 -354
-215 -452 -274 l-176 -107 -94 30 c-140 44 -211 59 -357 72 -197 18 -393 -8
-619 -82 l-62 -21 -48 28 c-102 59 -1110 669 -1149 695 -23 16 -44 29 -48 29
-3 0 -3 -17 1 -37z m1212 -1836 c62 -40 102 -116 102 -192 0 -210 -256 -304
-393 -145 -94 110 -57 282 76 350 61 31 158 25 215 -13z m1388 14 c73 -33 134
-126 134 -206 0 -78 -57 -168 -131 -205 -51 -26 -137 -27 -187 -1 -138 71
-173 231 -77 357 53 69 173 95 261 55z m-585 -511 c27 -15 49 -62 49 -106 0
-52 -50 -100 -113 -109 l-47 -7 0 -79 c0 -93 13 -130 66 -189 47 -52 82 -70
134 -70 121 0 120 -168 -1 -200 -80 -22 -177 18 -255 103 l-49 54 -44 -49
c-104 -117 -299 -152 -383 -68 -21 21 -28 38 -28 67 0 73 46 108 120 92 38 -9
50 -7 96 16 94 46 136 123 132 244 l-3 79 -38 6 c-58 10 -108 61 -114 118 -5
42 -3 50 25 78 l30 30 202 0 c119 0 209 -4 221 -10z"/>
<path d="M2903 7372 c-23 -59 -51 -135 -62 -170 -23 -72 -51 -256 -51 -337 l0
-54 -57 -43 c-127 -93 -205 -185 -260 -305 -79 -171 -83 -397 -11 -572 38 -91
127 -211 203 -272 61 -50 167 -107 256 -138 30 -10 62 -22 72 -26 16 -7 17 38
17 865 0 737 -2 889 -16 979 -17 120 -31 181 -42 181 -4 0 -26 -48 -49 -108z"/>
<path d="M6773 7463 c-1 -10 -9 -74 -17 -143 -13 -104 -16 -266 -16 -1002 0
-911 0 -904 38 -866 9 9 12 0 12 -43 0 -120 -62 -214 -178 -271 l-67 -33 -150
1 c-82 1 -206 9 -273 17 -117 15 -126 18 -162 51 -53 48 -93 67 -155 73 -155
16 -284 -121 -256 -271 18 -98 87 -172 184 -198 42 -11 56 -10 115 7 81 24
171 23 357 -2 266 -35 439 -18 600 62 137 67 245 195 300 355 28 80 29 96 31
250 l1 165 64 66 c170 173 235 412 175 641 -40 155 -75 218 -180 323 -54 53
-120 107 -161 131 -66 39 -70 43 -73 80 -11 162 -71 394 -147 563 -28 63 -40
74 -42 44z"/>
<path d="M3308 4772 c-205 -209 -341 -385 -490 -632 -181 -301 -297 -593 -349
-881 -11 -62 -14 -68 -48 -84 -72 -34 -178 -111 -260 -190 -139 -133 -226
-280 -277 -471 -22 -84 -27 -120 -27 -234 0 -170 23 -274 93 -415 109 -220
275 -373 497 -458 l58 -22 2285 -3 c2578 -3 2353 -10 2528 78 176 89 302 219
392 403 66 137 91 234 97 382 8 197 -41 379 -149 555 -64 104 -214 256 -315
320 -49 31 -72 51 -73 65 -1 35 -39 206 -71 320 -91 325 -326 752 -550 999
l-44 48 -95 -12 c-80 -11 -118 -10 -245 4 -82 9 -166 16 -185 16 l-35 0 -102
-283 c-56 -155 -133 -370 -171 -477 -39 -107 -114 -316 -167 -465 -94 -260
-125 -351 -125 -368 0 -4 292 -7 648 -7 418 1 665 -3 695 -9 186 -42 381 -174
478 -323 101 -157 130 -332 84 -507 -35 -135 -134 -258 -251 -314 l-69 -32
-2204 -3 c-2403 -2 -2267 -5 -2366 52 -54 32 -134 115 -173 179 -76 125 -91
315 -39 470 77 224 284 404 542 472 49 12 165 15 747 15 508 1 688 4 688 12 0
6 -25 79 -55 162 -30 83 -85 234 -121 336 -37 102 -88 244 -114 315 -26 72
-77 213 -114 315 -37 102 -84 230 -105 285 -21 55 -58 153 -82 218 l-44 118
-96 89 -96 89 -125 -127z"/>
<path d="M4515 4268 c-60 -33 -89 -94 -67 -143 6 -13 61 -89 123 -170 l111
-147 -36 -166 c-19 -92 -58 -266 -85 -387 -27 -121 -51 -237 -54 -257 l-6 -38
370 0 371 0 -7 33 c-4 17 -30 127 -57 242 -27 116 -67 291 -89 391 l-41 181
82 104 c134 171 170 220 170 238 0 9 -9 35 -19 58 -34 73 -35 73 -413 73 -224
-1 -340 -4 -353 -12z"/>
<path d="M3114 2710 c-138 -20 -300 -107 -374 -201 -87 -111 -141 -242 -143
-353 -2 -71 13 -108 50 -125 16 -8 193 -11 578 -11 l553 0 26 31 c21 25 26 41
26 88 0 259 -234 516 -515 566 -87 16 -123 16 -201 5z"/>
<path d="M4335 2665 c-23 -22 -25 -32 -25 -110 0 -78 2 -88 25 -110 24 -25 27
-25 195 -25 178 0 219 8 234 45 3 9 6 48 6 86 0 79 -17 123 -52 133 -13 3 -99
6 -191 6 -165 0 -168 0 -192 -25z"/>
<path d="M5086 2669 c-25 -19 -26 -25 -26 -114 0 -137 -4 -135 221 -135 163 0
178 2 203 21 25 19 26 25 26 113 0 84 -2 95 -23 114 -22 21 -32 22 -199 22
-162 0 -177 -2 -202 -21z"/>
<path d="M5826 2669 c-25 -19 -26 -25 -26 -114 0 -89 1 -95 26 -114 25 -19 40
-21 204 -21 172 0 177 1 198 23 19 20 22 35 22 113 0 82 -2 93 -23 112 -22 21
-32 22 -199 22 -162 0 -177 -2 -202 -21z"/>
<path d="M6575 2665 c-23 -22 -25 -32 -25 -110 0 -78 2 -88 25 -110 24 -25 27
-25 198 -25 161 0 176 2 201 21 25 19 26 25 26 114 0 89 -1 95 -26 114 -25 19
-40 21 -201 21 -171 0 -174 0 -198 -25z"/>
<path d="M4335 2265 c-23 -22 -25 -32 -25 -110 0 -78 2 -88 25 -110 24 -25 26
-25 204 -25 l179 0 26 31 c22 26 26 40 26 99 0 80 -12 113 -47 129 -14 7 -91
11 -194 11 -167 0 -170 0 -194 -25z"/>
<path d="M5082 2274 c-20 -14 -22 -23 -22 -113 0 -89 2 -99 23 -119 22 -21 32
-22 199 -22 162 0 177 2 202 21 25 19 26 25 26 114 0 89 -1 95 -26 114 -25 19
-40 21 -203 21 -144 0 -181 -3 -199 -16z"/>
<path d="M5826 2269 c-25 -19 -26 -25 -26 -110 0 -82 2 -92 25 -114 24 -25 27
-25 199 -25 167 0 176 1 200 23 23 20 26 30 28 111 2 86 1 89 -26 112 -26 23
-32 24 -200 24 -160 0 -175 -2 -200 -21z"/>
<path d="M6575 2265 c-23 -22 -25 -32 -25 -110 0 -78 2 -88 25 -110 24 -25 27
-25 198 -25 161 0 176 2 201 21 25 19 26 25 26 114 0 89 -1 95 -26 114 -25 19
-40 21 -201 21 -171 0 -174 0 -198 -25z"/>
</g>
</svg>
