<svg xmlns="http://www.w3.org/2000/svg" viewBox="0 0 1699.3 322.1"><defs><style>.a{fill:#fff;}.b{fill:#20bcd3;}</style></defs><rect class="a" x="502.8" y="99.6" width="46.9" height="199.01"/><rect class="a" x="578.9" y="99.6" width="46.9" height="199.01"/><path class="a" d="M824.7,126.7H734.1V50.6h-47V325.7h47V173.6h90.6a14.4,14.4,0,0,1,14.5,14.5V325.7h46.9V188.1A61.4,61.4,0,0,0,824.7,126.7Z" transform="translate(-32.2 -27.1)"/><rect class="a" x="883.1" y="99.6" width="46.9" height="199.01"/><path class="a" d="M1125,202.7h-76c-11.5,0-18.4-5.4-18.4-14.6a14.4,14.4,0,0,1,14.6-14.5h137.5V126.7H1045.2a61.5,61.5,0,1,0,0,122.9h76c11.5,0,18.4,5.5,18.4,14.6a14.4,14.4,0,0,1-14.6,14.5H983.7v47H1125a61.5,61.5,0,0,0,0-123Z" transform="translate(-32.2 -27.1)"/><path class="a" d="M1341.7,126.7h-76a61.5,61.5,0,0,0-61.5,61.4v76.1a61.6,61.6,0,0,0,61.5,61.5h76a61.6,61.6,0,0,0,61.5-61.5V188.1A61.5,61.5,0,0,0,1341.7,126.7Zm-90.6,61.4a14.4,14.4,0,0,1,14.6-14.5h76a14.4,14.4,0,0,1,14.6,14.5v76.1a14.4,14.4,0,0,1-14.6,14.5h-76a14.4,14.4,0,0,1-14.6-14.5Z" transform="translate(-32.2 -27.1)"/><path class="a" d="M1451.4,112.1v14.6h-26.7l.4,46.9h26.3V325.7h46.9V173.6h76V126.7h-76V112.1a14.4,14.4,0,0,1,14.5-14.6h61.5V50.6h-61.5A61.5,61.5,0,0,0,1451.4,112.1Z" transform="translate(-32.2 -27.1)"/><path class="a" d="M1666.7,264.2V173.6h64.6l.2-46.9h-64.8V50.6h-46.9v76.1h-31.6v46.9h31.6v90.6a61.6,61.6,0,0,0,61.5,61.5h50l.2-47h-50.2A14.4,14.4,0,0,1,1666.7,264.2Z" transform="translate(-32.2 -27.1)"/><path class="a" d="M347.1,213.3V325.7h47.5V213.3a41.1,41.1,0,0,1,41-41h81.7V124.8H435.6A88.6,88.6,0,0,0,347.1,213.3Z" transform="translate(-32.2 -27.1)"/><path class="b" d="M302,142.3,257.5,106a14.4,14.4,0,0,0-20.3,2.1l-7.3,8.9a14.5,14.5,0,0,0,2.1,20.4l13.1,10.7a14.5,14.5,0,0,1,2.1,20.4l-56.1,68.8a14.3,14.3,0,0,1-13.2,5.2,53.6,53.6,0,1,0,33.4,87h0a53.7,53.7,0,0,0,8.7-52.7,14,14,0,0,1,2.4-13.9l81.7-100.2A14.6,14.6,0,0,0,302,142.3ZM180,303.9a13.3,13.3,0,0,1-20.6-16.8,13.3,13.3,0,0,1,18.7-1.9A13.4,13.4,0,0,1,180,303.9Z" transform="translate(-32.2 -27.1)"/><path class="b" d="M117.5,68.2a56.3,56.3,0,0,0,2,31.4,14,14,0,0,1-2.4,13.9L35.5,213.6a14.5,14.5,0,0,0,2,20.4L82,270.3a14.6,14.6,0,0,0,20.4-2.1l7.3-8.9a14.4,14.4,0,0,0-2.1-20.3L94.4,228.2a14.6,14.6,0,0,1-2.1-20.4l56.2-68.7a13.9,13.9,0,0,1,13.1-5.2,55.2,55.2,0,0,0,30.7-4.2,43.2,43.2,0,0,0,6.7-3.6c35.9-24.2,31.5-76.3-7.1-94.3a47.4,47.4,0,0,0-14.2-4.2c-25.1-3.3-48.1,9.9-58,33.6A51.9,51.9,0,0,0,117.5,68.2Zm60.8,2.3a13.7,13.7,0,0,1,4.8,9,13.5,13.5,0,0,1-2.9,9.7,13.9,13.9,0,0,1-9,4.8,13.1,13.1,0,0,1-9.7-2.9,13.6,13.6,0,0,1-1.9-18.7h0a13.3,13.3,0,0,1,18.7-1.9Z" transform="translate(-32.2 -27.1)"/><rect class="b" x="156.5" y="176.6" width="26.3" height="26.32" rx="13.2" transform="translate(-69.4 14.3) rotate(-12.5)"/></svg>